<svg width="84" height="84" viewBox="0 0 84 84" fill="none" xmlns="http://www.w3.org/2000/svg">
<path d="M31.2188 6.9375C30.5802 6.9375 30.0625 7.45518 30.0625 8.09375V26.5938C30.0625 28.5095 28.5095 30.0625 26.5938 30.0625H8.09375C7.45518 30.0625 6.9375 30.5802 6.9375 31.2188V52.0312C6.9375 52.67 7.45518 53.1875 8.09375 53.1875H26.5938C28.5095 53.1875 30.0625 54.7406 30.0625 56.6562V75.1562C30.0625 75.795 30.5802 76.3125 31.2188 76.3125H52.0312C52.67 76.3125 53.1875 75.795 53.1875 75.1562V56.6562C53.1875 54.7406 54.7406 53.1875 56.6562 53.1875H75.1562C75.795 53.1875 76.3125 52.67 76.3125 52.0312V31.2188C76.3125 30.5802 75.795 30.0625 75.1562 30.0625H56.6562C54.7406 30.0625 53.1875 28.5095 53.1875 26.5938V8.09375C53.1875 7.45518 52.67 6.9375 52.0312 6.9375H31.2188ZM23.125 8.09375C23.125 3.62369 26.7487 0 31.2188 0H52.0312C56.5013 0 60.125 3.62369 60.125 8.09375V23.125H75.1562C79.6263 23.125 83.25 26.7487 83.25 31.2188V52.0312C83.25 56.5013 79.6263 60.125 75.1562 60.125H60.125V75.1562C60.125 79.6263 56.5013 83.25 52.0312 83.25H31.2188C26.7487 83.25 23.125 79.6263 23.125 75.1562V60.125H8.09375C3.62369 60.125 0 56.5013 0 52.0312V31.2188C0 26.7487 3.62369 23.125 8.09375 23.125H23.125V8.09375Z" fill="white"/>
</svg>
