<svg width="71" height="19" viewBox="0 0 71 19" fill="none" xmlns="http://www.w3.org/2000/svg">
<path d="M-6.58631e-06 14.88V1.68H4.33999L8.01999 11.62H8.11999L11.72 1.68H15.86V14.88H13.12L13.3 4.6H13.08L9.07999 14.88H6.67999L2.73999 4.6H2.51999L2.69999 14.88H-6.58631e-06ZM23.5291 15.16C22.6624 15.16 21.8891 15.04 21.2091 14.8C20.5424 14.56 19.9757 14.2133 19.5091 13.76C19.0424 13.3067 18.6824 12.7467 18.4291 12.08C18.1891 11.4133 18.0691 10.66 18.0691 9.82C18.0691 8.99334 18.1824 8.23334 18.4091 7.54C18.6491 6.83334 18.9957 6.22667 19.4491 5.72C19.9024 5.2 20.4557 4.8 21.1091 4.52C21.7624 4.24 22.5024 4.1 23.3291 4.1C24.1291 4.1 24.8424 4.23334 25.4691 4.5C26.0957 4.75334 26.6157 5.14 27.0291 5.66C27.4557 6.18 27.7624 6.82 27.9491 7.58C28.1491 8.32667 28.2224 9.18667 28.1691 10.16L19.9291 10.24V8.66L26.5091 8.6L25.4891 9.4C25.5824 8.69334 25.5357 8.11334 25.3491 7.66C25.1624 7.20667 24.8891 6.87334 24.5291 6.66C24.1824 6.44667 23.7957 6.34 23.3691 6.34C22.8624 6.34 22.4157 6.47334 22.0291 6.74C21.6424 7.00667 21.3424 7.4 21.1291 7.92C20.9157 8.42667 20.8091 9.04 20.8091 9.76C20.8091 10.8933 21.0557 11.7267 21.5491 12.26C22.0557 12.7933 22.7157 13.06 23.5291 13.06C23.9024 13.06 24.2157 13.0133 24.4691 12.92C24.7357 12.8133 24.9491 12.68 25.1091 12.52C25.2824 12.36 25.4157 12.18 25.5091 11.98C25.6157 11.78 25.7024 11.58 25.7691 11.38L28.2691 11.92C28.1491 12.4133 27.9691 12.86 27.7291 13.26C27.5024 13.6467 27.1957 13.9867 26.8091 14.28C26.4224 14.56 25.9557 14.7733 25.4091 14.92C24.8757 15.08 24.2491 15.16 23.5291 15.16ZM34.2269 15.16C33.3469 15.16 32.5735 14.9333 31.9069 14.48C31.2535 14.0267 30.7469 13.3867 30.3869 12.56C30.0269 11.7333 29.8469 10.7533 29.8469 9.62C29.8469 8.55334 30.0069 7.60667 30.3269 6.78C30.6469 5.95334 31.1202 5.30667 31.7469 4.84C32.3735 4.37334 33.1535 4.14 34.0869 4.14C34.7669 4.14 35.3402 4.26667 35.8069 4.52C36.2735 4.77334 36.6535 5.14667 36.9469 5.64C37.2535 6.12 37.4935 6.7 37.6669 7.38H38.1269C38.0335 6.95334 37.9469 6.54 37.8669 6.14C37.8002 5.72667 37.7469 5.33334 37.7069 4.96C37.6669 4.58667 37.6469 4.26 37.6469 3.98V0.580004H40.5269V9.72V14.88H38.1269V11.84H37.7269C37.5802 12.5867 37.3535 13.2067 37.0469 13.7C36.7402 14.1933 36.3469 14.56 35.8669 14.8C35.4002 15.04 34.8535 15.16 34.2269 15.16ZM35.1869 12.8C35.6269 12.8 36.0002 12.7067 36.3069 12.52C36.6135 12.3333 36.8669 12.0933 37.0669 11.8C37.2669 11.4933 37.4135 11.1667 37.5069 10.82C37.6002 10.46 37.6469 10.1267 37.6469 9.82V9.44C37.6469 9.18667 37.6069 8.92667 37.5269 8.66C37.4602 8.38 37.3602 8.10667 37.2269 7.84C37.0935 7.57334 36.9269 7.34 36.7269 7.14C36.5269 6.92667 36.2935 6.76 36.0269 6.64C35.7602 6.52 35.4669 6.46 35.1469 6.46C34.6669 6.46 34.2602 6.59334 33.9269 6.86C33.5935 7.12667 33.3335 7.5 33.1469 7.98C32.9602 8.44667 32.8669 8.99334 32.8669 9.62C32.8669 10.26 32.9602 10.82 33.1469 11.3C33.3469 11.78 33.6202 12.1533 33.9669 12.42C34.3135 12.6733 34.7202 12.8 35.1869 12.8ZM43.1803 14.88V4.38H46.0603V14.88H43.1803ZM44.6403 2.8C44.0803 2.8 43.647 2.68667 43.3403 2.46C43.047 2.22 42.9003 1.87334 42.9003 1.42C42.9003 0.953338 43.047 0.600005 43.3403 0.360005C43.647 0.120005 44.0803 4.52995e-06 44.6403 4.52995e-06C45.2136 4.52995e-06 45.647 0.120005 45.9403 0.360005C46.247 0.600005 46.4003 0.953338 46.4003 1.42C46.4003 1.86 46.247 2.2 45.9403 2.44C45.647 2.68 45.2136 2.8 44.6403 2.8ZM52.8872 18.54C51.7405 18.54 50.7938 18.4467 50.0472 18.26C49.3138 18.0867 48.7738 17.8267 48.4272 17.48C48.0805 17.1333 47.9072 16.7 47.9072 16.18C47.9072 15.5667 48.1472 15.0667 48.6272 14.68C49.1205 14.2933 49.8405 14.06 50.7872 13.98V13.58C50.0672 13.58 49.5138 13.5067 49.1272 13.36C48.7405 13.2 48.5472 12.9267 48.5472 12.54C48.5472 12.1667 48.7338 11.8333 49.1072 11.54C49.4938 11.2467 50.1272 11.0133 51.0072 10.84V10.44C50.1805 10.3867 49.5338 10.12 49.0672 9.64C48.6005 9.16 48.3672 8.54 48.3672 7.78C48.3672 7.11334 48.5538 6.52 48.9272 6C49.3005 5.46667 49.8538 5.04667 50.5872 4.74C51.3338 4.42 52.2472 4.26 53.3272 4.26H58.6472V6.46L55.3472 6V6.46C56.2005 6.58 56.8138 6.79334 57.1872 7.1C57.5738 7.40667 57.7672 7.83334 57.7672 8.38C57.7672 8.92667 57.5872 9.40667 57.2272 9.82C56.8672 10.2333 56.3538 10.56 55.6872 10.8C55.0338 11.0267 54.2472 11.14 53.3272 11.14C53.1538 11.14 52.9672 11.1333 52.7672 11.12C52.5672 11.1067 52.2338 11.0733 51.7672 11.02C51.5138 11.2067 51.3138 11.3733 51.1672 11.52C51.0338 11.6533 50.9672 11.78 50.9672 11.9C50.9672 11.9933 51.0138 12.0733 51.1072 12.14C51.2138 12.2067 51.3472 12.2533 51.5072 12.28C51.6805 12.3067 51.8538 12.32 52.0272 12.32H55.0272C55.2938 12.32 55.6405 12.34 56.0672 12.38C56.4938 12.4067 56.9205 12.5067 57.3472 12.68C57.7738 12.8533 58.1338 13.1333 58.4272 13.52C58.7205 13.8933 58.8672 14.4333 58.8672 15.14C58.8672 15.9133 58.6472 16.5533 58.2072 17.06C57.7805 17.5667 57.1205 17.94 56.2272 18.18C55.3472 18.42 54.2338 18.54 52.8872 18.54ZM53.2072 16.24C54.0205 16.24 54.6538 16.1933 55.1072 16.1C55.5605 16.02 55.8805 15.88 56.0672 15.68C56.2672 15.4933 56.3672 15.2533 56.3672 14.96C56.3672 14.6933 56.3072 14.4867 56.1872 14.34C56.0805 14.1933 55.9338 14.0933 55.7472 14.04C55.5738 13.9733 55.3938 13.9333 55.2072 13.92C55.0338 13.8933 54.8805 13.88 54.7472 13.88H52.2272C51.6672 13.9333 51.2605 14.0867 51.0072 14.34C50.7672 14.58 50.6472 14.86 50.6472 15.18C50.6472 15.4733 50.7405 15.6933 50.9272 15.84C51.1138 15.9867 51.3938 16.0867 51.7672 16.14C52.1538 16.2067 52.6338 16.24 53.2072 16.24ZM53.1672 9.64C53.8072 9.64 54.2872 9.48667 54.6072 9.18C54.9272 8.86 55.0872 8.44667 55.0872 7.94C55.0872 7.40667 54.9205 6.96667 54.5872 6.62C54.2672 6.27334 53.7938 6.1 53.1672 6.1C52.5538 6.1 52.0738 6.27334 51.7272 6.62C51.3805 6.95334 51.2072 7.38667 51.2072 7.92C51.2072 8.25334 51.2805 8.55334 51.4272 8.82C51.5872 9.07334 51.8138 9.27334 52.1072 9.42C52.4005 9.56667 52.7538 9.64 53.1672 9.64ZM65.2645 15.16C64.2112 15.16 63.2845 14.9533 62.4845 14.54C61.6845 14.1133 61.0579 13.4933 60.6045 12.68C60.1512 11.8533 59.9245 10.8267 59.9245 9.6C59.9245 8.37334 60.1512 7.35334 60.6045 6.54C61.0712 5.72667 61.7045 5.12 62.5045 4.72C63.3179 4.30667 64.2379 4.1 65.2645 4.1C66.3179 4.1 67.2445 4.30667 68.0445 4.72C68.8579 5.13334 69.4912 5.75334 69.9445 6.58C70.4112 7.39334 70.6445 8.41334 70.6445 9.64C70.6445 10.88 70.4045 11.9133 69.9245 12.74C69.4579 13.5533 68.8179 14.16 68.0045 14.56C67.2045 14.96 66.2912 15.16 65.2645 15.16ZM65.3645 13.02C65.8845 13.02 66.3179 12.9 66.6645 12.66C67.0245 12.42 67.2912 12.06 67.4645 11.58C67.6512 11.0867 67.7445 10.4933 67.7445 9.8C67.7445 9.06667 67.6445 8.44667 67.4445 7.94C67.2579 7.42 66.9779 7.02667 66.6045 6.76C66.2312 6.48 65.7579 6.34 65.1845 6.34C64.6912 6.34 64.2645 6.46 63.9045 6.7C63.5445 6.92667 63.2712 7.28667 63.0845 7.78C62.8979 8.26 62.8045 8.85334 62.8045 9.56C62.8045 10.6933 63.0312 11.5533 63.4845 12.14C63.9379 12.7267 64.5645 13.02 65.3645 13.02Z" fill="white"/>
</svg>
