<svg width="23" height="17" viewBox="0 0 23 17" fill="none" xmlns="http://www.w3.org/2000/svg">
<path fill-rule="evenodd" clip-rule="evenodd" d="M11.5 0C8.47502 0 5.94011 1.48178 4.07469 3.08757C2.2025 4.69918 0.903315 6.5212 0.326738 7.40541C-0.108913 8.07341 -0.108913 8.92659 0.326738 9.59459C0.903315 10.4788 2.2025 12.3008 4.07469 13.9125C5.94011 15.5182 8.47502 17 11.5 17C14.525 17 17.0599 15.5182 18.9254 13.9125C20.7975 12.3008 22.0967 10.4788 22.6733 9.59459C23.1089 8.92659 23.1089 8.07341 22.6733 7.40541C22.0967 6.5212 20.7975 4.69918 18.9254 3.08757C17.0599 1.48178 14.525 0 11.5 0ZM8.8488 8.5C8.8488 7.03301 10.0358 5.84375 11.5 5.84375C12.9642 5.84375 14.1511 7.03301 14.1511 8.5C14.1511 9.96699 12.9642 11.1562 11.5 11.1562C10.0358 11.1562 8.8488 9.96699 8.8488 8.5ZM11.5 3.71875C8.86441 3.71875 6.72786 5.85939 6.72786 8.5C6.72786 11.1406 8.86441 13.2812 11.5 13.2812C14.1355 13.2812 16.2721 11.1406 16.2721 8.5C16.2721 5.85939 14.1355 3.71875 11.5 3.71875Z" fill="#1E252D"/>
</svg>
