<svg width="23" height="17" viewBox="0 0 23 17" fill="none" xmlns="http://www.w3.org/2000/svg">
<path fill-rule="evenodd" clip-rule="evenodd" d="M19.6731 1.8138C20.0872 1.39887 20.0872 0.726134 19.6731 0.311196C19.259 -0.103732 18.5875 -0.103732 18.1734 0.311196L13.6548 4.83843C13.0233 4.46455 12.2866 4.25 11.5 4.25C9.15724 4.25 7.25809 6.15279 7.25809 8.5C7.25809 9.28816 7.47223 10.0263 7.8454 10.659L3.32682 15.1862C2.91269 15.6011 2.91269 16.2739 3.32682 16.6888C3.74097 17.1037 4.41241 17.1037 4.82656 16.6888L9.34513 12.1616C9.9766 12.5355 10.7133 12.75 11.5 12.75C13.8426 12.75 15.7418 10.8472 15.7418 8.5C15.7418 7.71184 15.5277 6.97372 15.1546 6.34103L19.6731 1.8138ZM12.0493 6.44693C11.8741 6.40008 11.69 6.375 11.5 6.375C10.3286 6.375 9.37903 7.32636 9.37903 8.5C9.37903 8.6904 9.40406 8.87485 9.45082 9.05037L12.0493 6.44693ZM10.9506 10.5531L13.5491 7.94963C13.5959 8.12515 13.6209 8.3096 13.6209 8.5C13.6209 9.67364 12.6714 10.625 11.5 10.625C11.3099 10.625 11.1258 10.5999 10.9506 10.5531ZM15.4927 0.871994C14.2876 0.340521 12.9502 0 11.5 0C8.47502 0 5.94011 1.48178 4.0747 3.08757C2.2025 4.69918 0.903315 6.5212 0.326738 7.40541C-0.108913 8.07341 -0.108913 8.92659 0.326738 9.59459C0.813376 10.3409 1.81478 11.7552 3.24098 13.1473L4.74082 11.6446C3.49927 10.4368 2.60417 9.19392 2.14666 8.5C2.6879 7.67911 3.84161 6.0898 5.45686 4.69937C7.1245 3.26384 9.18363 2.125 11.5 2.125C12.3185 2.125 13.105 2.26722 13.8535 2.51449L15.4927 0.871994ZM11.5 14.875C10.6815 14.875 9.89505 14.7327 9.14661 14.4855L7.50726 16.128C8.71238 16.6595 10.0499 17 11.5 17C14.525 17 17.0599 15.5182 18.9254 13.9125C20.7975 12.3008 22.0967 10.4788 22.6733 9.59459C23.1089 8.92659 23.1089 8.07341 22.6733 7.40541C22.1866 6.65911 21.1852 5.24479 19.759 3.85274L18.2592 5.35546C19.5008 6.56317 20.3959 7.80608 20.8534 8.5C20.3121 9.32089 19.1585 10.9102 17.5431 12.3007C15.8756 13.7362 13.8163 14.875 11.5 14.875Z" fill="#1E252D"/>
</svg>
