<svg width="21" height="20" viewBox="0 0 21 20" fill="none" xmlns="http://www.w3.org/2000/svg">
<path d="M12.6111 16.3529H20M1 16.3529H3.11111M3.11111 16.3529C3.11111 17.8149 4.29258 19 5.75 19C7.20742 19 8.38889 17.8149 8.38889 16.3529C8.38889 14.891 7.20742 13.7059 5.75 13.7059C4.29258 13.7059 3.11111 14.891 3.11111 16.3529ZM18.9444 10H20M1 10H8.38889M11.5556 3.64706H20M11.5556 3.64706C11.5556 2.18513 10.3741 1 8.91667 1C7.45925 1 6.27778 2.18513 6.27778 3.64706C6.27778 5.10899 7.45925 6.29412 8.91667 6.29412C10.3741 6.29412 11.5556 5.10899 11.5556 3.64706ZM1 3.64706H2.05556M15.25 12.6471C13.7926 12.6471 12.6111 11.4619 12.6111 10C12.6111 8.53808 13.7926 7.35294 15.25 7.35294C16.7074 7.35294 17.8889 8.53808 17.8889 10C17.8889 11.4619 16.7074 12.6471 15.25 12.6471Z" stroke="white" stroke-width="2" stroke-linecap="round" stroke-linejoin="round"/>
</svg>
