<svg width="20" height="20" viewBox="0 0 20 20" fill="none" xmlns="http://www.w3.org/2000/svg">
<path d="M20 10.2297C20 9.54965 19.9435 8.86677 19.8246 8.19817H10.2014V12.0483H15.7116C15.5979 12.6644 15.3585 13.2514 15.008 13.7737C14.6575 14.296 14.2032 14.7428 13.6724 15.087V17.5871H16.9608C18.8913 15.8441 20 13.2726 20 10.2297Z" fill="#4285F4"/>
<path d="M10.2028 20C12.9536 20 15.2739 19.1143 16.9637 17.5856L13.6768 15.087C12.7622 15.697 11.5811 16.0427 10.2057 16.0427C7.54481 16.0427 5.28827 14.2827 4.47812 11.9169H1.08678V14.4927C1.94128 16.1516 3.24562 17.5446 4.85489 18.5168C6.46416 19.489 8.31535 20.0024 10.2028 20Z" fill="#34A853"/>
<path d="M4.47377 11.9169C4.04639 10.6754 4.04639 9.32963 4.47377 8.08817V5.51237H1.08533C0.371764 6.90463 0 8.44266 0 10.0025C0 11.5624 0.371764 13.1004 1.08533 14.4927L4.47377 11.9169Z" fill="#FBBC04"/>
<path d="M10.2028 3.9566C11.6559 3.93338 13.0605 4.47182 14.1159 5.45665L17.029 2.60084C15.1776 0.900873 12.7328 -0.0303557 10.2028 0.000755141C8.31483 -0.00160269 6.46318 0.512315 4.85381 1.48535C3.24444 2.45839 1.94042 3.85241 1.08678 5.51237L4.47232 8.08531C5.27812 5.71666 7.53901 3.9566 10.1999 3.9566H10.2028Z" fill="#EA4335"/>
</svg>
