<svg width="14" height="17" viewBox="0 0 14 17" fill="none" xmlns="http://www.w3.org/2000/svg">
<path d="M1.69614 9.97902L2.12232 10.2405L2.12346 10.2386L1.69614 9.97902ZM0.764238 11.4979L0.338059 11.2364L0.337982 11.2365L0.764238 11.4979ZM1.63941 13.8279L1.48181 14.3024L1.48364 14.303L1.63941 13.8279ZM12.3927 13.8279L12.2384 13.3523L12.237 13.3528L12.3927 13.8279ZM13.2679 11.4979L13.6945 11.2371L13.6941 11.2364L13.2679 11.4979ZM12.336 9.97902L11.9049 10.2325L11.9098 10.2405L12.336 9.97902ZM8.51928 1.50198L8.38228 1.98284C8.56563 2.03508 8.76273 1.97851 8.89046 1.83698C9.0182 1.69545 9.05433 1.4936 8.98362 1.31655L8.51928 1.50198ZM7.74135 1.34294L7.68047 1.83922L7.68229 1.83944L7.74135 1.34294ZM5.521 1.50198L5.05665 1.31655C4.98594 1.49363 5.02209 1.69551 5.14987 1.83704C5.27765 1.97857 5.4748 2.03511 5.65816 1.9828L5.521 1.50198ZM5.30222 15.8002L5.65243 15.4433L5.65243 15.4433L5.30222 15.8002ZM7.02014 1.27134V0.771342C4.07065 0.771342 1.65803 3.12551 1.65803 6.04268H2.15803H2.65803C2.65803 3.69547 4.60509 1.77134 7.02014 1.77134V1.27134ZM2.15803 6.04268H1.65803V8.34086H2.15803H2.65803V6.04268H2.15803ZM2.15803 8.34086H1.65803C1.65803 8.52201 1.61673 8.78001 1.54017 9.05068C1.46368 9.32108 1.36347 9.5636 1.26881 9.71942L1.69614 9.97902L2.12346 10.2386C2.28001 9.98092 2.41075 9.6469 2.50241 9.32287C2.59399 8.99912 2.65803 8.6448 2.65803 8.34086H2.15803ZM1.69614 9.97902L1.26996 9.71754L0.338059 11.2364L0.764238 11.4979L1.19042 11.7594L2.12231 10.2405L1.69614 9.97902ZM0.764238 11.4979L0.337982 11.2365C-0.0222502 11.8241 -0.0956517 12.48 0.12322 13.0601C0.341517 13.6386 0.829184 14.0856 1.48181 14.3024L1.63941 13.8279L1.79702 13.3534C1.39619 13.2202 1.1586 12.9714 1.05883 12.7071C0.959643 12.4442 0.97538 12.1101 1.19049 11.7592L0.764238 11.4979ZM1.63941 13.8279L1.48364 14.303C5.07743 15.4813 8.95472 15.4813 12.5485 14.303L12.3927 13.8279L12.237 13.3528C8.84557 14.4647 5.18658 14.4647 1.79519 13.3528L1.63941 13.8279ZM12.3927 13.8279L12.547 14.3035C13.8291 13.8876 14.4012 12.3929 13.6945 11.2371L13.2679 11.4979L12.8413 11.7587C13.2043 12.3524 12.9174 13.132 12.2385 13.3523L12.3927 13.8279ZM13.2679 11.4979L13.6941 11.2364L12.7622 9.71754L12.336 9.97902L11.9098 10.2405L12.8417 11.7594L13.2679 11.4979ZM12.336 9.97902L12.767 9.72562C12.6743 9.56781 12.5753 9.32327 12.4995 9.0522C12.4236 8.78047 12.3822 8.52216 12.3822 8.34086H11.8822H11.3822C11.3822 8.64464 11.4462 8.99865 11.5364 9.32135C11.6268 9.64472 11.7547 9.97671 11.905 10.2324L12.336 9.97902ZM11.8822 8.34086H12.3822V6.04268H11.8822H11.3822V8.34086H11.8822ZM11.8822 6.04268H12.3822C12.3822 3.13346 9.9615 0.771342 7.02014 0.771342V1.27134V1.77134C9.42706 1.77134 11.3822 3.70342 11.3822 6.04268H11.8822ZM8.51928 1.50198L8.65628 1.02112C8.38365 0.943443 8.0981 0.881846 7.80041 0.846436L7.74135 1.34294L7.68229 1.83944C7.91943 1.86764 8.15249 1.91738 8.38228 1.98284L8.51928 1.50198ZM7.74135 1.34294L7.80222 0.846655C6.96178 0.74356 6.14869 0.80297 5.38383 1.02116L5.521 1.50198L5.65816 1.9828C6.2871 1.80338 6.96505 1.75146 7.68047 1.83922L7.74135 1.34294ZM5.521 1.50198L5.98534 1.68741C6.14494 1.28777 6.54523 1 7.02014 1V0.5V0C6.13366 0 5.36706 0.53926 5.05665 1.31655L5.521 1.50198ZM7.02014 0.5V1C7.49504 1 7.89534 1.28777 8.05494 1.68741L8.51928 1.50198L8.98362 1.31655C8.67322 0.539261 7.90662 0 7.02014 0V0.5ZM9.45118 14.1143H8.95118C8.95118 15.1415 8.08999 16 7.02014 16V16.5V17C8.62443 17 9.95118 15.7114 9.95118 14.1143H9.45118ZM7.02014 16.5V16C6.49091 16 5.99962 15.7841 5.65243 15.4433L5.30222 15.8002L4.95201 16.1571C5.47997 16.6752 6.2204 17 7.02014 17V16.5ZM5.30222 15.8002L5.65243 15.4433C5.30538 15.1028 5.08911 14.625 5.08911 14.1143H4.58911H4.08911C4.08911 14.9079 4.42389 15.6388 4.95201 16.1571L5.30222 15.8002Z" fill="#1E252D"/>
</svg>
