<svg width="17" height="18" viewBox="0 0 17 18" fill="none" xmlns="http://www.w3.org/2000/svg">
<path d="M14.4112 6C13.779 6.00771 13.1708 6.2478 12.6989 6.676C12.227 7.10419 11.9231 7.69161 11.8433 8.32992C11.7635 8.96822 11.9132 9.61437 12.2647 10.1492C12.6163 10.684 13.146 11.0714 13.7561 11.24V12.6667C13.7561 13.7275 13.342 14.7449 12.605 15.4951C11.8679 16.2452 10.8682 16.6667 9.82581 16.6667C8.78342 16.6667 7.78373 16.2452 7.04665 15.4951C6.30957 14.7449 5.89548 13.7275 5.89548 12.6667V10.6667H6.55054L7.20559 10V8.94C8.17264 8.54187 9.00094 7.85907 9.58443 6.97901C10.1679 6.09894 10.4801 5.06167 10.4809 4V0.666667L9.82581 0H7.86065V1.33333H9.17075V4C9.17075 5.06087 8.75667 6.07828 8.01959 6.82843C7.28251 7.57857 6.28282 8 5.24043 8C5.05193 8.00088 4.86363 7.98751 4.67708 7.96C3.74184 7.82215 2.88671 7.34597 2.26835 6.6187C1.64999 5.89142 1.3098 4.96175 1.31011 4V1.33333H2.62022V0H0.655054L0 0.666667V4C0.00602394 5.06045 0.320236 6.09538 0.903066 6.97445C1.4859 7.85351 2.31128 8.53741 3.27527 8.94V10L3.93032 10.6667H4.58538V12.6667C4.58538 14.0812 5.13749 15.4377 6.12026 16.4379C7.10303 17.4381 8.43596 18 9.82581 18C11.2157 18 12.5486 17.4381 13.5314 16.4379C14.5141 15.4377 15.0662 14.0812 15.0662 12.6667V11.24C15.6764 11.0714 16.2061 10.684 16.5576 10.1492C16.9092 9.61437 17.0588 8.96822 16.979 8.32992C16.8992 7.69161 16.5954 7.10419 16.1234 6.676C15.6515 6.2478 15.0434 6.00771 14.4112 6ZM14.4112 10C14.1521 10 13.8988 9.9218 13.6833 9.77529C13.4679 9.62878 13.3 9.42055 13.2008 9.17691C13.1016 8.93328 13.0757 8.66519 13.1262 8.40655C13.1768 8.14791 13.3016 7.91033 13.4848 7.72386C13.668 7.53739 13.9015 7.4104 14.1556 7.35895C14.4097 7.30751 14.6732 7.33391 14.9125 7.43483C15.1519 7.53574 15.3565 7.70664 15.5005 7.92591C15.6445 8.14517 15.7213 8.40296 15.7213 8.66667C15.7213 9.02029 15.5833 9.35943 15.3376 9.60948C15.0919 9.85952 14.7586 10 14.4112 10Z" fill="black"/>
<path d="M14.4112 10C15.1347 10 15.7213 9.40305 15.7213 8.66667C15.7213 7.93029 15.1347 7.33333 14.4112 7.33333C13.6876 7.33333 13.1011 7.93029 13.1011 8.66667C13.1011 9.40305 13.6876 10 14.4112 10Z" fill="#226CEB"/>
</svg>
