<svg width="14" height="12" viewBox="0 0 14 12" fill="none" xmlns="http://www.w3.org/2000/svg">
<path d="M3.33893 11.7708C3.64267 12.0764 4.13514 12.0764 4.43887 11.7708C4.74261 11.4651 4.74261 10.9697 4.43887 10.6641L3.33893 11.7708ZM0.777801 8.08697V7.30436C0.463217 7.30436 0.179619 7.49501 0.0592296 7.78749C-0.0611597 8.07988 0.00538676 8.4165 0.227831 8.64033L0.777801 8.08697ZM13.2222 8.86958C13.6518 8.86958 14 8.51918 14 8.08697C14 7.65476 13.6518 7.30436 13.2222 7.30436V8.86958ZM10.661 0.229219C10.3573 -0.0764063 9.86492 -0.0764063 9.56117 0.229219C9.25742 0.534844 9.25742 1.03037 9.56117 1.336L10.661 0.229219ZM13.2222 3.91305V4.69566C13.5367 4.69566 13.8204 4.50502 13.9408 4.21253C14.0612 3.92015 13.9946 3.58349 13.7722 3.35966L13.2222 3.91305ZM0.777801 3.13044C0.348251 3.13044 2.54787e-05 3.48083 2.54787e-05 3.91305C2.54787e-05 4.34526 0.348251 4.69566 0.777801 4.69566V3.13044ZM4.43887 10.6641L1.32777 7.53362L0.227831 8.64033L3.33893 11.7708L4.43887 10.6641ZM0.777801 8.86958H13.2222V7.30436H0.777801V8.86958ZM9.56117 1.336L12.6723 4.46641L13.7722 3.35966L10.661 0.229219L9.56117 1.336ZM13.2222 3.13044H0.777801V4.69566H13.2222V3.13044Z" fill="#226CEB"/>
</svg>
