<svg width="12" height="12" viewBox="0 0 12 12" fill="none" xmlns="http://www.w3.org/2000/svg">
<path d="M4.29189 2.04503C5.05188 0.681679 5.43185 0 5.99999 0C6.56813 0 6.94811 0.681673 7.70807 2.04502L7.90469 2.39774C8.12069 2.78516 8.22863 2.97888 8.39705 3.10669C8.56541 3.2345 8.77505 3.28194 9.19445 3.37683L9.57629 3.46322C11.052 3.79714 11.79 3.9641 11.9655 4.52864C12.1411 5.09317 11.6381 5.68147 10.6319 6.85795L10.3716 7.16233C10.0857 7.49665 9.94277 7.66381 9.87845 7.87063C9.81419 8.07745 9.83579 8.30047 9.87899 8.74657L9.91835 9.15265C10.0704 10.7224 10.1465 11.5072 9.68693 11.8561C9.22727 12.205 8.53637 11.8869 7.15457 11.2507L6.79709 11.0861C6.40445 10.9053 6.20813 10.8149 5.99999 10.8149C5.79185 10.8149 5.59553 10.9053 5.20289 11.0861L4.84541 11.2507C3.4636 11.8869 2.77271 12.205 2.31309 11.8561C1.85347 11.5072 1.92953 10.7224 2.08164 9.15265L2.12099 8.74657C2.16422 8.30047 2.18583 8.07745 2.12151 7.87063C2.05721 7.66381 1.91426 7.49665 1.62835 7.16233L1.36806 6.85795C0.361951 5.68147 -0.141107 5.09317 0.0344531 4.52864C0.210013 3.9641 0.947916 3.79714 2.42372 3.46322L2.80553 3.37683C3.22491 3.28194 3.43459 3.2345 3.60296 3.10669C3.77133 2.97888 3.87931 2.78517 4.09528 2.39774L4.29189 2.04503Z" fill="#FFBB23"/>
</svg>
