<svg width="22" height="22" viewBox="0 0 22 22" fill="none" xmlns="http://www.w3.org/2000/svg">
<path fill-rule="evenodd" clip-rule="evenodd" d="M10.5506 16.3068C10.7184 16.3068 10.8862 16.3509 11.0392 16.4379L15.0159 18.7243L14.2594 13.8996C14.1992 13.5213 14.3142 13.1359 14.5653 12.8678L17.7687 9.46024L13.334 8.74994C12.9911 8.69539 12.6946 8.45978 12.5406 8.11856L10.5506 3.71516L8.5607 8.11856C8.40666 8.45978 8.11017 8.69539 7.76726 8.74994L3.33262 9.46024L6.53594 12.8678C6.78706 13.1359 6.90207 13.5213 6.84192 13.8996L6.08541 18.7243L10.0621 16.4379C10.2151 16.3509 10.3829 16.3068 10.5506 16.3068ZM16.4192 21.9996C16.2514 21.9996 16.0837 21.9567 15.9307 21.8685L10.5506 18.7766L5.17063 21.8685C4.814 22.0727 4.38351 22.0368 4.0617 21.7768C3.73673 21.5168 3.5753 21.0769 3.64282 20.6417L4.66839 14.1097L0.321331 9.48461C0.0311752 9.17705 -0.0722258 8.71512 0.0512223 8.29381C0.173615 7.87251 0.504921 7.5661 0.902698 7.50227L6.91789 6.54127L9.60526 0.591918C9.96189 -0.197306 11.1394 -0.197306 11.496 0.591918L14.1834 6.54127L20.1986 7.50227C20.5964 7.5661 20.9277 7.87251 21.0501 8.29381C21.1735 8.71512 21.0701 9.17705 20.78 9.48461L16.4329 14.1097L17.4585 20.6417C17.526 21.0769 17.3646 21.5168 17.0396 21.7768C16.857 21.9253 16.6386 21.9996 16.4192 21.9996Z" fill="#F7C480"/>
</svg>
