<svg width="22" height="22" viewBox="0 0 22 22" fill="none" xmlns="http://www.w3.org/2000/svg">
<path fill-rule="evenodd" clip-rule="evenodd" d="M22 19.5556C22 20.2302 21.5083 20.7778 20.9 20.7778C20.2917 20.7778 19.8 20.2302 19.8 19.5556C19.8 17.534 18.3194 15.8889 16.5 15.8889C15.7487 15.8889 15.0348 16.1749 14.4584 16.6821C15.0568 17.8994 15.4 19.2952 15.4 20.7778C15.4 21.4524 14.9083 22 14.3 22C13.6917 22 13.2 21.4524 13.2 20.7778C13.2 17.4081 10.7327 14.6667 7.7 14.6667C4.6673 14.6667 2.2 17.4081 2.2 20.7778C2.2 21.4524 1.7083 22 1.1 22C0.4917 22 0 21.4524 0 20.7778C0 16.06 3.4551 12.2222 7.7 12.2222C9.8197 12.2222 11.7403 13.1792 13.134 14.7229C14.0899 13.9016 15.2669 13.4444 16.5 13.4444C19.5327 13.4444 22 16.1859 22 19.5556ZM16.5 7.33333C17.1072 7.33333 17.6 7.88211 17.6 8.55556C17.6 9.229 17.1072 9.77778 16.5 9.77778C15.8928 9.77778 15.4 9.229 15.4 8.55556C15.4 7.88211 15.8928 7.33333 16.5 7.33333ZM16.5 12.2222C18.3194 12.2222 19.8 10.5771 19.8 8.55556C19.8 6.534 18.3194 4.88889 16.5 4.88889C14.6806 4.88889 13.2 6.534 13.2 8.55556C13.2 10.5771 14.6806 12.2222 16.5 12.2222ZM7.7 2.44444C8.9133 2.44444 9.9 3.54078 9.9 4.88889C9.9 6.237 8.9133 7.33333 7.7 7.33333C6.4867 7.33333 5.5 6.237 5.5 4.88889C5.5 3.54078 6.4867 2.44444 7.7 2.44444ZM7.7 9.77778C10.1266 9.77778 12.1 7.58511 12.1 4.88889C12.1 2.19267 10.1266 0 7.7 0C5.2734 0 3.3 2.19267 3.3 4.88889C3.3 7.58511 5.2734 9.77778 7.7 9.77778Z" fill="#7ACEFA"/>
</svg>
